<svg width="20" height="20" viewBox="0 0 20 20" fill="none" xmlns="http://www.w3.org/2000/svg">
<path d="M10.074 1.25V13.728M4.19 8.465L9.012 13.287C9.305 13.58 9.689 13.727 10.072 13.727M15.955 8.465L11.133 13.287C10.84 13.58 10.456 13.727 10.073 13.727M18.75 14.515V15.45C18.75 15.8834 18.6646 16.3125 18.4988 16.7129C18.333 17.1132 18.0899 17.477 17.7835 17.7835C17.477 18.0899 17.1132 18.333 16.7129 18.4988C16.3125 18.6646 15.8834 18.75 15.45 18.75H4.55C4.11664 18.75 3.68752 18.6646 3.28714 18.4988C2.88677 18.333 2.52298 18.0899 2.21655 17.7835C1.91011 17.477 1.66704 17.1132 1.5012 16.7129C1.33536 16.3125 1.25 15.8834 1.25 15.45V14.515" stroke="white" stroke-width="1.5" stroke-linecap="round" stroke-linejoin="round"/>
</svg>
