<svg width="20" height="20" viewBox="0 0 20 20" fill="none" xmlns="http://www.w3.org/2000/svg">
<path fill-rule="evenodd" clip-rule="evenodd" d="M1.30469 5.06109C1.41496 4.57025 1.68603 4.13199 2.07351 3.8181C2.46099 3.50421 2.94191 3.33328 3.4375 3.33331H16.5625C17.0581 3.33328 17.539 3.50421 17.9265 3.8181C18.314 4.13199 18.585 4.57025 18.6953 5.06109L10 10.46L1.30469 5.06109ZM1.25 6.32998V14.2233L7.59703 10.27L1.25 6.32998ZM8.64484 10.9222L1.45891 15.3966C1.63645 15.777 1.91667 16.0982 2.26695 16.3231C2.61723 16.5479 3.02316 16.667 3.4375 16.6666H16.5625C16.9768 16.6667 17.3826 16.5473 17.7326 16.3223C18.0827 16.0973 18.3627 15.7759 18.54 15.3955L11.3541 10.9211L10 11.7622L8.64484 10.9211V10.9222ZM12.403 10.2711L18.75 14.2233V6.32998L12.403 10.27V10.2711Z" fill="#25282B"/>
</svg>
