<svg width="18" height="18" viewBox="0 0 18 18" fill="none" xmlns="http://www.w3.org/2000/svg">
<g clip-path="url(#clip0_2054_4)">
<path d="M9 0C11.3869 0 13.6761 0.948211 15.364 2.63604C17.0518 4.32387 18 6.61305 18 9C18 11.3869 17.0518 13.6761 15.364 15.364C13.6761 17.0518 11.3869 18 9 18C6.61305 18 4.32387 17.0518 2.63604 15.364C0.948211 13.6761 0 11.3869 0 9C0 6.61305 0.948211 4.32387 2.63604 2.63604C4.32387 0.948211 6.61305 0 9 0ZM9 1.47C4.8645 1.47 1.5 4.8345 1.5 9C1.49807 10.5832 1.99519 12.1267 2.92072 13.4112C3.84625 14.6957 5.15308 15.6558 6.6555 16.155L6.723 16.1625C7.0275 16.1775 7.1415 15.969 7.1415 15.7875L7.131 14.5065C5.046 14.961 4.605 13.4955 4.605 13.4955C4.2645 12.6255 3.7725 12.3945 3.7725 12.3945C3.0915 11.9265 3.8235 11.9355 3.8235 11.9355C4.371 11.9745 4.7295 12.3675 4.8855 12.5805L4.9725 12.7125C5.6415 13.863 6.7275 13.5315 7.155 13.3395C7.224 12.852 7.416 12.5205 7.6305 12.3315C5.9655 12.141 4.215 11.4945 4.215 8.6085C4.215 7.7865 4.5075 7.1145 4.9875 6.5865L4.9425 6.459C4.8465 6.1545 4.7145 5.472 5.061 4.593L5.121 4.5825C5.307 4.5585 5.943 4.563 7.1235 5.3655C7.73511 5.19876 8.36607 5.11352 9 5.112C9.6375 5.115 10.2795 5.199 10.878 5.367C12.3105 4.392 12.939 4.593 12.939 4.593C13.347 5.631 13.089 6.396 13.014 6.588C13.494 7.113 13.7835 7.7865 13.7835 8.6085C13.7835 11.5035 12.03 12.1395 10.359 12.3255C10.629 12.558 10.869 13.0185 10.869 13.7205L10.86 15.7875C10.86 15.9825 10.9875 16.2105 11.3445 16.155C12.8469 15.6558 14.1538 14.6957 15.0793 13.4112C16.0048 12.1267 16.5019 10.5832 16.5 9C16.5 4.8345 13.1355 1.47 9 1.47Z" fill="white"/>
</g>
<defs>
<clipPath id="clip0_2054_4">
<rect width="18" height="18" fill="white"/>
</clipPath>
</defs>
</svg>
