<svg width="24" height="24" viewBox="0 0 24 24" fill="none" xmlns="http://www.w3.org/2000/svg">
<g clip-path="url(#clip0_62_13)">
<path d="M12.0008 2.625C9.45478 2.625 9.13519 2.63616 8.13525 2.68163C7.13719 2.72738 6.45591 2.88534 5.85984 3.11719C5.24316 3.35662 4.72013 3.67697 4.19906 4.19822C3.67753 4.71937 3.35719 5.24241 3.117 5.85881C2.8845 6.45506 2.72634 7.13662 2.68144 8.13422C2.63672 9.13425 2.625 9.45394 2.625 12.0001C2.625 14.5463 2.63625 14.8648 2.68163 15.8647C2.72756 16.8628 2.88553 17.5441 3.11719 18.1402C3.35681 18.7568 3.67716 19.2799 4.19841 19.8009C4.71938 20.3225 5.24241 20.6436 5.85862 20.883C6.45516 21.1148 7.13653 21.2728 8.13441 21.3186C9.13444 21.364 9.45375 21.3752 11.9997 21.3752C14.5461 21.3752 14.8646 21.364 15.8646 21.3186C16.8626 21.2728 17.5447 21.1148 18.1412 20.883C18.7576 20.6436 19.2799 20.3225 19.8007 19.8009C20.3223 19.2799 20.6425 18.7568 20.8828 18.1404C21.1133 17.5441 21.2715 16.8626 21.3184 15.8649C21.3633 14.865 21.375 14.5463 21.375 12.0001C21.375 9.45394 21.3633 9.13444 21.3184 8.13441C21.2715 7.13634 21.1133 6.45516 20.8828 5.85909C20.6425 5.24241 20.3223 4.71937 19.8007 4.19822C19.2793 3.67678 18.7578 3.35644 18.1406 3.11728C17.543 2.88534 16.8613 2.72728 15.8632 2.68163C14.8632 2.63616 14.5448 2.625 11.9979 2.625H12.0008ZM11.1598 4.31447C11.4095 4.31409 11.688 4.31447 12.0008 4.31447C14.5041 4.31447 14.8007 4.32347 15.7892 4.36838C16.7032 4.41019 17.1994 4.56291 17.5298 4.69125C17.9674 4.86112 18.2793 5.06428 18.6072 5.3925C18.9353 5.72062 19.1384 6.03309 19.3088 6.47062C19.4371 6.80062 19.59 7.29675 19.6316 8.21081C19.6765 9.19913 19.6863 9.49594 19.6863 11.9979C19.6863 14.4999 19.6765 14.7968 19.6316 15.7851C19.5898 16.6991 19.4371 17.1952 19.3088 17.5253C19.1389 17.9629 18.9353 18.2744 18.6072 18.6023C18.2791 18.9305 17.9676 19.1335 17.5298 19.3035C17.1997 19.4324 16.7032 19.5848 15.7892 19.6266C14.8009 19.6715 14.5041 19.6812 12.0008 19.6812C9.49753 19.6812 9.20081 19.6715 8.21259 19.6266C7.29853 19.5844 6.80241 19.4317 6.47166 19.3033C6.03422 19.1333 5.72166 18.9303 5.39353 18.6022C5.06541 18.274 4.86234 17.9623 4.692 17.5246C4.56366 17.1945 4.41075 16.6984 4.36913 15.7843C4.32422 14.796 4.31522 14.4992 4.31522 11.9956C4.31522 9.49209 4.32422 9.19678 4.36913 8.20847C4.41094 7.29441 4.56366 6.79828 4.692 6.46781C4.86197 6.03028 5.06541 5.71781 5.39363 5.38969C5.72175 5.06156 6.03422 4.85841 6.47175 4.68816C6.80222 4.55925 7.29853 4.40691 8.21259 4.36491C9.07744 4.32581 9.41259 4.31409 11.1598 4.31212V4.31447ZM17.0052 5.87109C16.3841 5.87109 15.8802 6.37453 15.8802 6.99572C15.8802 7.61681 16.3841 8.12072 17.0052 8.12072C17.6263 8.12072 18.1302 7.61681 18.1302 6.99572C18.1302 6.37463 17.6263 5.87072 17.0052 5.87072V5.87109ZM12.0008 7.18556C9.34209 7.18556 7.18641 9.34125 7.18641 12.0001C7.18641 14.6589 9.34209 16.8136 12.0008 16.8136C14.6597 16.8136 16.8146 14.6589 16.8146 12.0001C16.8146 9.34134 14.6595 7.18556 12.0007 7.18556H12.0008ZM12.0008 8.87503C13.7267 8.87503 15.1259 10.2741 15.1259 12.0001C15.1259 13.7259 13.7267 15.1252 12.0008 15.1252C10.2749 15.1252 8.87588 13.7259 8.87588 12.0001C8.87588 10.2741 10.2749 8.87503 12.0008 8.87503Z" fill="#7456FF"/>
</g>
<defs>
<clipPath id="clip0_62_13">
<rect width="24" height="24" fill="white"/>
</clipPath>
</defs>
</svg>
