<svg width="17" height="17" viewBox="0 0 17 17" fill="none" xmlns="http://www.w3.org/2000/svg">
<path d="M8.33417 5.83333C7.67113 5.83333 7.03524 6.09672 6.5664 6.56557C6.09756 7.03441 5.83417 7.67029 5.83417 8.33333C5.83417 8.99637 6.09756 9.63226 6.5664 10.1011C7.03524 10.5699 7.67113 10.8333 8.33417 10.8333C8.99721 10.8333 9.63309 10.5699 10.1019 10.1011C10.5708 9.63226 10.8342 8.99637 10.8342 8.33333C10.8342 7.67029 10.5708 7.03441 10.1019 6.56557C9.63309 6.09672 8.99721 5.83333 8.33417 5.83333ZM8.33417 4.16667C9.43924 4.16667 10.499 4.60565 11.2804 5.38705C12.0618 6.16846 12.5008 7.22826 12.5008 8.33333C12.5008 9.4384 12.0618 10.4982 11.2804 11.2796C10.499 12.061 9.43924 12.5 8.33417 12.5C7.2291 12.5 6.16929 12.061 5.38789 11.2796C4.60649 10.4982 4.1675 9.4384 4.1675 8.33333C4.1675 7.22826 4.60649 6.16846 5.38789 5.38705C6.16929 4.60565 7.2291 4.16667 8.33417 4.16667ZM13.7508 3.95833C13.7508 4.2346 13.6411 4.49955 13.4457 4.6949C13.2504 4.89025 12.9854 5 12.7092 5C12.4329 5 12.1679 4.89025 11.9726 4.6949C11.7772 4.49955 11.6675 4.2346 11.6675 3.95833C11.6675 3.68207 11.7772 3.41711 11.9726 3.22176C12.1679 3.02641 12.4329 2.91667 12.7092 2.91667C12.9854 2.91667 13.2504 3.02641 13.4457 3.22176C13.6411 3.41711 13.7508 3.68207 13.7508 3.95833ZM8.33417 1.66667C6.2725 1.66667 5.93583 1.6725 4.97667 1.715C4.32333 1.74583 3.885 1.83333 3.47833 1.99167C3.13819 2.11698 2.8306 2.3172 2.57833 2.5775C2.31773 2.82968 2.11722 3.13728 1.99167 3.4775C1.83333 3.88583 1.74583 4.32333 1.71583 4.97583C1.6725 5.89583 1.66667 6.2175 1.66667 8.33333C1.66667 10.3958 1.6725 10.7317 1.715 11.6908C1.74583 12.3433 1.83333 12.7825 1.99083 13.1883C2.1325 13.5508 2.29917 13.8117 2.57583 14.0883C2.85667 14.3683 3.1175 14.5358 3.47583 14.6742C3.8875 14.8333 4.32583 14.9217 4.97583 14.9517C5.89583 14.995 6.2175 15 8.33333 15C10.3958 15 10.7317 14.9942 11.6908 14.9517C12.3425 14.9208 12.7808 14.8333 13.1883 14.6758C13.5285 14.5505 13.8361 14.3503 14.0883 14.09C14.3692 13.81 14.5367 13.5492 14.675 13.19C14.8333 12.78 14.9217 12.3417 14.9517 11.69C14.995 10.7708 15 10.4483 15 8.33333C15 6.27167 14.9942 5.935 14.9517 4.97583C14.9208 4.32417 14.8325 3.88417 14.675 3.4775C14.5497 3.13736 14.3495 2.82977 14.0892 2.5775C13.837 2.31689 13.5294 2.11638 13.1892 1.99083C12.7808 1.8325 12.3425 1.745 11.6908 1.715C10.7717 1.67167 10.45 1.66667 8.33333 1.66667M8.33333 0C10.5975 0 10.88 0.00833328 11.7692 0.05C12.6558 0.0916666 13.2608 0.230833 13.7917 0.4375C14.3417 0.649167 14.805 0.935833 15.2683 1.39833C15.6922 1.81478 16.0202 2.31873 16.2292 2.875C16.435 3.40583 16.575 4.01083 16.6167 4.89833C16.6558 5.78667 16.6667 6.06917 16.6667 8.33333C16.6667 10.5975 16.6583 10.88 16.6167 11.7683C16.575 12.6567 16.435 13.26 16.2292 13.7917C16.0202 14.3479 15.6922 14.8519 15.2683 15.2683C14.8519 15.6922 14.3479 16.0202 13.7917 16.2292C13.2608 16.435 12.6558 16.575 11.7692 16.6167C10.88 16.6558 10.5975 16.6667 8.33333 16.6667C6.06917 16.6667 5.78667 16.6583 4.8975 16.6167C4.01083 16.575 3.40667 16.435 2.875 16.2292C2.31873 16.0202 1.81478 15.6922 1.39833 15.2683C0.974422 14.8519 0.646513 14.3479 0.4375 13.7917C0.230833 13.2608 0.0916666 12.6558 0.05 11.7683C0.00999995 10.88 0 10.5975 0 8.33333C0 6.06917 0.00833328 5.78667 0.05 4.89833C0.0916666 4.01 0.230833 3.40667 0.4375 2.875C0.646513 2.31873 0.974422 1.81478 1.39833 1.39833C1.81478 0.974422 2.31873 0.646513 2.875 0.4375C3.40583 0.230833 4.01 0.0916666 4.8975 0.05C5.7875 0.0108333 6.07 0 8.33417 0" fill="white"/>
</svg>
