<svg width="18" height="18" viewBox="0 0 18 18" fill="none" xmlns="http://www.w3.org/2000/svg">
<path d="M5.62527 14.8711H3.16434V6.92578H5.62527V14.8711ZM5.87082 4.39439C5.87082 3.59885 5.22537 2.95312 4.43024 2.95312C3.63208 2.95312 2.98828 3.59885 2.98828 4.39439C2.98828 5.19022 3.63208 5.83594 4.43024 5.83594C5.22537 5.83594 5.87082 5.19022 5.87082 4.39439ZM14.8359 10.4999C14.8359 8.36705 14.3854 6.78516 11.8938 6.78516C10.6966 6.78516 9.89291 7.38391 9.56483 8.00656H9.5625V6.92578H7.17188V14.8711H9.5625V10.9262C9.5625 9.89305 9.82549 8.8922 11.1061 8.8922C12.3692 8.8922 12.4102 10.0736 12.4102 10.9918V14.8711H14.8359V10.4999ZM18 15.8906V2.10938C18 0.946198 17.0538 0 15.8906 0H2.10938C0.946198 0 0 0.946198 0 2.10938V15.8906C0 17.0538 0.946198 18 2.10938 18H15.8906C17.0538 18 18 17.0538 18 15.8906ZM15.8906 1.40625C16.2783 1.40625 16.5938 1.72169 16.5938 2.10938V15.8906C16.5938 16.2783 16.2783 16.5938 15.8906 16.5938H2.10938C1.72169 16.5938 1.40625 16.2783 1.40625 15.8906V2.10938C1.40625 1.72169 1.72169 1.40625 2.10938 1.40625H15.8906Z" fill="white"/>
</svg>
