<svg width="24" height="24" viewBox="0 0 24 24" fill="none" xmlns="http://www.w3.org/2000/svg">
<path d="M6.158 4H17.842C19.034 4 20 4.966 20 6.158V9.613C19.3919 9.77173 18.8518 10.1237 18.461 10.616C17.989 11.202 17.703 11.993 17.633 12.882C17.6183 13.0593 17.6127 13.2367 17.616 13.414C17.657 15.177 18.496 16.63 20 16.964V17.842C19.9995 18.4142 19.7719 18.9628 19.3674 19.3674C18.9628 19.7719 18.4142 19.9995 17.842 20H6.158C5.58583 19.9995 5.03724 19.7719 4.63265 19.3674C4.22806 18.9628 4.00053 18.4142 4 17.842V6.158C4 4.966 4.966 4 6.158 4ZM21 6.158C20.9995 5.32061 20.6666 4.51767 20.0745 3.92554C19.4823 3.33342 18.6794 3.00053 17.842 3H6.158C5.32061 3.00053 4.51767 3.33342 3.92554 3.92554C3.33342 4.51767 3.00053 5.32061 3 6.158V17.842C3.00053 18.6794 3.33342 19.4823 3.92554 20.0745C4.51767 20.6666 5.32061 20.9995 6.158 21H17.842C18.6794 20.9995 19.4823 20.6666 20.0745 20.0745C20.6666 19.4823 20.9995 18.6794 21 17.842V6.158ZM20 10.298V12.281H19.384C19.423 11.414 19.637 10.701 20 10.298ZM20 12.662V14.725C19.559 14.212 19.301 13.475 19.347 12.662H20ZM17.697 7.3L17.712 7.297V7.187H14.812L12.122 13.513L9.43 7.187H6.306V7.297L6.32 7.3C6.849 7.42 7.118 7.598 7.118 8.24V15.76C7.118 16.402 6.848 16.58 6.318 16.7L6.305 16.702V16.812H8.425V16.702L8.41 16.7C7.881 16.58 7.612 16.402 7.612 15.76V8.676L11.07 16.813H11.266L14.825 8.449V15.945C14.779 16.453 14.513 16.61 14.034 16.718L14.02 16.721V16.83H17.712V16.72L17.697 16.718C17.217 16.61 16.945 16.453 16.9 15.945L16.897 8.24H16.9C16.9 7.598 17.169 7.42 17.697 7.3Z" fill="white"/>
</svg>
