<svg width="17" height="17" viewBox="0 0 17 17" fill="none" xmlns="http://www.w3.org/2000/svg">
<path d="M2.98256 0.944444H14.0174C15.1432 0.944444 16.0556 1.85678 16.0556 2.98256V6.24561C15.4812 6.39552 14.9711 6.72797 14.6021 7.19289C14.1563 7.74633 13.8862 8.49339 13.8201 9.333C13.8062 9.50048 13.8009 9.66796 13.804 9.83544C13.8427 11.5005 14.6351 12.8728 16.0556 13.1882V14.0174C16.0551 14.5578 15.8402 15.0759 15.4581 15.4581C15.0759 15.8402 14.5578 16.0551 14.0174 16.0556H2.98256C2.44217 16.0551 1.92406 15.8402 1.54195 15.4581C1.15983 15.0759 0.944945 14.5578 0.944444 14.0174V2.98256C0.944444 1.85678 1.85678 0.944444 2.98256 0.944444ZM17 2.98256C16.9995 2.19169 16.6851 1.43335 16.1259 0.874123C15.5666 0.314894 14.8083 0.000500392 14.0174 0H2.98256C2.19169 0.000500392 1.43335 0.314894 0.874123 0.874123C0.314894 1.43335 0.000500392 2.19169 0 2.98256V14.0174C0.000500392 14.8083 0.314894 15.5666 0.874123 16.1259C1.43335 16.6851 2.19169 16.9995 2.98256 17H14.0174C14.8083 16.9995 15.5666 16.6851 16.1259 16.1259C16.6851 15.5666 16.9995 14.8083 17 14.0174V2.98256ZM16.0556 6.89256V8.76539H15.4738C15.5106 7.94656 15.7127 7.27317 16.0556 6.89256ZM16.0556 9.12522V11.0736C15.6391 10.5891 15.3954 9.89306 15.4388 9.12522H16.0556ZM13.8805 4.06111L13.8947 4.05828V3.95439H11.1558L8.61522 9.92894L6.07278 3.95439H3.12233V4.05828L3.13556 4.06111C3.63517 4.17444 3.88922 4.34256 3.88922 4.94889V12.0511C3.88922 12.6574 3.63422 12.8256 3.13367 12.9389L3.12139 12.9408V13.0447H5.12361V12.9408L5.10944 12.9389C4.60983 12.8256 4.35578 12.6574 4.35578 12.0511V5.36067L7.62167 13.0456H7.80678L11.1681 5.14628V12.2258C11.1246 12.7056 10.8734 12.8539 10.421 12.9559L10.4078 12.9587V13.0617H13.8947V12.9578L13.8805 12.9559C13.4272 12.8539 13.1703 12.7056 13.1278 12.2258L13.1249 4.94889H13.1278C13.1278 4.34256 13.3818 4.17444 13.8805 4.06111Z" fill="white"/>
</svg>
