<svg width="572" height="608" viewBox="0 0 572 608" fill="none" xmlns="http://www.w3.org/2000/svg">
<g clip-path="url(#clip0_2001_68)">
<mask id="mask0_2001_68" style="mask-type:luminance" maskUnits="userSpaceOnUse" x="-233" y="0" width="805" height="608">
<path d="M572 0H-233V608H572V0Z" fill="white"/>
</mask>
<g mask="url(#mask0_2001_68)">
<g opacity="0.2" filter="url(#filter0_f_2001_68)">
<path d="M-515.159 -390.853L-540 -366.012L-104.193 69.7951L199.843 359.214L-79.352 44.9541L-515.159 -390.853Z" fill="url(#paint0_linear_2001_68)"/>
</g>
<g opacity="0.32" filter="url(#filter1_f_2001_68)">
<path d="M-308.074 -380.376L-332.915 -355.535L102.892 80.2726L406.929 369.691L127.733 55.4316L-308.074 -380.376Z" fill="url(#paint1_linear_2001_68)"/>
</g>
<g opacity="0.32" filter="url(#filter2_f_2001_68)">
<path d="M-228.568 -487L-253.409 -462.159L182.398 -26.3516L486.434 263.067L207.239 -51.1927L-228.568 -487Z" fill="url(#paint2_linear_2001_68)"/>
</g>
</g>
</g>
<defs>
<filter id="filter0_f_2001_68" x="-620" y="-470.853" width="899.843" height="910.067" filterUnits="userSpaceOnUse" color-interpolation-filters="sRGB">
<feFlood flood-opacity="0" result="BackgroundImageFix"/>
<feBlend mode="normal" in="SourceGraphic" in2="BackgroundImageFix" result="shape"/>
<feGaussianBlur stdDeviation="40" result="effect1_foregroundBlur_2001_68"/>
</filter>
<filter id="filter1_f_2001_68" x="-412.915" y="-460.376" width="899.844" height="910.067" filterUnits="userSpaceOnUse" color-interpolation-filters="sRGB">
<feFlood flood-opacity="0" result="BackgroundImageFix"/>
<feBlend mode="normal" in="SourceGraphic" in2="BackgroundImageFix" result="shape"/>
<feGaussianBlur stdDeviation="40" result="effect1_foregroundBlur_2001_68"/>
</filter>
<filter id="filter2_f_2001_68" x="-333.409" y="-567" width="899.843" height="910.067" filterUnits="userSpaceOnUse" color-interpolation-filters="sRGB">
<feFlood flood-opacity="0" result="BackgroundImageFix"/>
<feBlend mode="normal" in="SourceGraphic" in2="BackgroundImageFix" result="shape"/>
<feGaussianBlur stdDeviation="40" result="effect1_foregroundBlur_2001_68"/>
</filter>
<linearGradient id="paint0_linear_2001_68" x1="-527.58" y1="-378.433" x2="-91.772" y2="57.3746" gradientUnits="userSpaceOnUse">
<stop stop-color="white"/>
<stop offset="1" stop-color="#D3D8DF"/>
</linearGradient>
<linearGradient id="paint1_linear_2001_68" x1="-320.495" y1="-367.955" x2="115.313" y2="67.8521" gradientUnits="userSpaceOnUse">
<stop stop-color="white"/>
<stop offset="1" stop-color="#D3D8DF"/>
</linearGradient>
<linearGradient id="paint2_linear_2001_68" x1="-240.989" y1="-474.579" x2="194.819" y2="-38.7722" gradientUnits="userSpaceOnUse">
<stop stop-color="white"/>
<stop offset="1" stop-color="#D3D8DF"/>
</linearGradient>
<clipPath id="clip0_2001_68">
<rect width="805" height="608" fill="white" transform="translate(-233)"/>
</clipPath>
</defs>
</svg>
