<svg width="22" height="21" viewBox="0 0 22 21" fill="none" xmlns="http://www.w3.org/2000/svg">
<path d="M13.844 2.34402L12.416 3.12502L13.844 3.90602L14.625 5.33402L15.406 3.90602L16.834 3.12502L15.406 2.34402L14.625 0.916016L13.844 2.34402ZM8.412 3.15802C7.10231 3.42376 5.88006 4.01336 4.85685 4.87297C3.83364 5.73259 3.04207 6.83484 2.55443 8.07907C2.06679 9.3233 1.89861 10.6699 2.06525 11.9958C2.23189 13.3218 2.72804 14.5848 3.5084 15.6697C4.28875 16.7546 5.32845 17.6267 6.53255 18.2064C7.73664 18.7861 9.06678 19.0549 10.4015 18.9883C11.7362 18.9217 13.033 18.5218 14.1734 17.8251C15.3138 17.1284 16.2615 16.1572 16.93 15C14.5552 14.9815 12.284 14.0252 10.6112 12.3394C8.93852 10.6535 7.99993 8.37489 8 6.00002C8 5.02002 8.131 4.06302 8.412 3.15802ZM0 11C0 5.47702 4.477 1.00002 10 1.00002H11.734L10.866 2.50002C10.287 3.50002 10 4.69002 10 6.00002C9.99985 7.03363 10.2286 8.05446 10.6698 8.98917C11.1111 9.92388 11.7538 10.7493 12.5519 11.4061C13.35 12.0629 14.2837 12.5348 15.2858 12.7879C16.288 13.041 17.3337 13.0691 18.348 12.87L20.03 12.543L19.487 14.169C18.162 18.137 14.417 21 10 21C4.477 21 0 16.523 0 11ZM18.5 5.41602L19.414 7.08602L21.084 8.00002L19.414 8.91402L18.5 10.584L17.586 8.91402L15.916 8.00002L17.586 7.08602L18.5 5.41602Z" fill="white"/>
</svg>
