<svg width="20" height="20" viewBox="0 0 20 20" fill="none" xmlns="http://www.w3.org/2000/svg">
<path d="M7.58417 19.7425V13.0925H5.5225V10.0367H7.58417V8.72001C7.58417 5.31585 9.12417 3.73835 12.4658 3.73835C12.8 3.73835 13.2617 3.77335 13.6892 3.82418C14.0093 3.85789 14.3269 3.91217 14.64 3.98668V6.75752C14.459 6.74093 14.2775 6.73092 14.0958 6.72752C13.8923 6.72225 13.6886 6.71975 13.485 6.72002C12.8958 6.72002 12.4358 6.80002 12.0892 6.97752C11.8565 7.09495 11.6607 7.27431 11.5233 7.49585C11.3083 7.84585 11.2117 8.32501 11.2117 8.95585V10.0367H14.4775L14.1558 11.7892L13.9167 13.0925H11.2117V19.9633C16.1633 19.365 20 15.1492 20 10.0367C20 4.51418 15.5225 0.0366821 10 0.0366821C4.4775 0.0366821 0 4.51418 0 10.0367C0 14.7267 3.22833 18.6617 7.58417 19.7425Z" fill="#7456FF"/>
</svg>
