<svg width="20" height="20" viewBox="0 0 20 20" fill="none" xmlns="http://www.w3.org/2000/svg">
<g clip-path="url(#clip0_125_7)">
<path d="M19 9.199H18.02C17.467 9.199 17.02 9.558 17.02 10C17.02 10.441 17.467 10.799 18.02 10.799H19C19.552 10.799 20 10.442 20 10C20 9.559 19.551 9.199 19 9.199ZM10 4.5C9.2771 4.49776 8.56089 4.63848 7.89259 4.91409C7.22428 5.1897 6.61708 5.59474 6.10591 6.10591C5.59474 6.61708 5.1897 7.22428 4.91409 7.89259C4.63848 8.56089 4.49776 9.2771 4.5 10C4.5 13.051 6.949 15.5 10 15.5C13.05 15.5 15.5 13.051 15.5 10C15.5 6.949 13.049 4.5 10 4.5ZM10 14C7.789 14 6 12.209 6 10C6 7.789 7.789 6 10 6C11.0609 6 12.0783 6.42143 12.8284 7.17157C13.5786 7.92172 14 8.93913 14 10C14 11.0609 13.5786 12.0783 12.8284 12.8284C12.0783 13.5786 11.0609 14 10 14ZM3 10C3 9.559 2.551 9.199 2 9.199H1C0.447 9.199 0 9.558 0 10C0 10.441 0.447 10.799 1 10.799H2C2.551 10.799 3 10.441 3 10ZM10 3C10.441 3 10.799 2.553 10.799 2V1C10.799 0.447 10.441 0 10 0C9.559 0 9.199 0.447 9.199 1V2C9.199 2.553 9.558 3 10 3ZM10 17C9.558 17 9.199 17.447 9.199 18V19C9.199 19.553 9.558 20 10 20C10.441 20 10.799 19.553 10.799 19V18C10.799 17.447 10.441 17 10 17ZM17.365 3.766C17.756 3.375 17.819 2.805 17.507 2.493C17.195 2.181 16.624 2.245 16.235 2.636L15.535 3.335C15.144 3.726 15.081 4.296 15.393 4.608C15.705 4.92 16.276 4.856 16.666 4.465L17.365 3.766ZM3.334 15.533L2.634 16.234C2.243 16.625 2.18 17.193 2.492 17.505C2.804 17.817 3.375 17.755 3.764 17.364L4.464 16.665C4.855 16.274 4.918 15.704 4.606 15.391C4.294 15.078 3.723 15.144 3.334 15.533ZM3.765 2.635C3.375 2.244 2.804 2.18 2.492 2.492C2.18 2.804 2.244 3.375 2.633 3.766L3.333 4.465C3.724 4.856 4.293 4.92 4.605 4.608C4.917 4.296 4.854 3.725 4.464 3.335L3.765 2.635ZM15.534 16.666L16.234 17.365C16.625 17.756 17.194 17.818 17.506 17.508C17.818 17.196 17.755 16.625 17.364 16.235L16.665 15.536C16.274 15.145 15.704 15.081 15.391 15.393C15.078 15.705 15.143 16.275 15.534 16.666Z" fill="#25282B"/>
</g>
<defs>
<clipPath id="clip0_125_7">
<rect width="20" height="20" fill="white"/>
</clipPath>
</defs>
</svg>
