<svg width="20" height="20" viewBox="0 0 20 20" fill="none" xmlns="http://www.w3.org/2000/svg">
<path d="M14.4192 1.875H5.58083C4.59799 1.875 3.65539 2.26543 2.96041 2.96041C2.26543 3.65539 1.875 4.59799 1.875 5.58083V14.4192C1.875 15.402 2.26543 16.3446 2.96041 17.0396C3.65539 17.7346 4.59799 18.125 5.58083 18.125H14.4192C15.402 18.125 16.3446 17.7346 17.0396 17.0396C17.7346 16.3446 18.125 15.402 18.125 14.4192V5.58083C18.125 4.59799 17.7346 3.65539 17.0396 2.96041C16.3446 2.26543 15.402 1.875 14.4192 1.875ZM7.36917 14.9933C7.37178 15.0387 7.36509 15.0841 7.34951 15.1268C7.33394 15.1695 7.3098 15.2085 7.27858 15.2415C7.24736 15.2745 7.20973 15.3008 7.16798 15.3188C7.12624 15.3367 7.08127 15.3459 7.03583 15.3458H5.5525C5.46305 15.3437 5.37802 15.3065 5.31569 15.2423C5.25336 15.1781 5.2187 15.092 5.21917 15.0025V8.83333C5.21794 8.78879 5.22566 8.74446 5.24186 8.70296C5.25806 8.66145 5.28242 8.62361 5.3135 8.59168C5.34457 8.55975 5.38173 8.53438 5.42279 8.51705C5.46384 8.49973 5.50794 8.49082 5.5525 8.49083H7.03583C7.08039 8.49082 7.1245 8.49973 7.16555 8.51705C7.2066 8.53438 7.24376 8.55975 7.27484 8.59168C7.30591 8.62361 7.33027 8.66145 7.34647 8.70296C7.36268 8.74446 7.37039 8.78879 7.36917 8.83333V14.9933ZM6.26667 7.19333C6.10607 7.19213 5.94728 7.15931 5.79937 7.09674C5.65146 7.03417 5.51733 6.94308 5.40462 6.82867C5.29191 6.71426 5.20284 6.57877 5.1425 6.42994C5.08215 6.28111 5.05171 6.12185 5.05292 5.96125C5.05412 5.80065 5.08694 5.64187 5.14951 5.49396C5.21208 5.34605 5.30317 5.21191 5.41758 5.0992C5.53199 4.98649 5.66748 4.89743 5.81631 4.83708C5.96514 4.77674 6.1244 4.7463 6.285 4.7475C6.60376 4.75787 6.90586 4.89239 7.12682 5.12238C7.34778 5.35237 7.47012 5.6596 7.46773 5.97852C7.46534 6.29745 7.3384 6.60281 7.11402 6.82946C6.88963 7.0561 6.58555 7.18608 6.26667 7.19167M15.2808 14.9833C15.2804 15.0675 15.2474 15.1483 15.1886 15.2086C15.1299 15.2689 15.05 15.3041 14.9658 15.3067H13.4C13.3157 15.3041 13.2357 15.2688 13.1769 15.2083C13.1181 15.1478 13.0852 15.0668 13.085 14.9825V12.1292C13.085 11.7033 13.215 10.2767 11.955 10.2767C10.9725 10.2767 10.7783 11.2767 10.7408 11.7217V15.0475C10.7409 15.132 10.708 15.2132 10.6492 15.2738C10.5904 15.3345 10.5103 15.3699 10.4258 15.3725H8.90667C8.82062 15.3723 8.73816 15.3379 8.6774 15.277C8.61663 15.2161 8.5825 15.1336 8.5825 15.0475V8.80333C8.5851 8.71888 8.62049 8.63876 8.68115 8.57996C8.74182 8.52116 8.82301 8.48829 8.9075 8.48833H10.4258C10.5103 8.48829 10.5915 8.52116 10.6522 8.57996C10.7128 8.63876 10.7482 8.71888 10.7508 8.80333V9.34083C10.9725 9.01635 11.2786 8.75855 11.6361 8.59525C11.9935 8.43195 12.3887 8.36933 12.7792 8.41417C15.3083 8.41417 15.2992 10.7767 15.2992 12.12L15.2808 14.9833Z" fill="#7456FF"/>
</svg>
