<svg width="16" height="16" viewBox="0 0 16 16" fill="none" xmlns="http://www.w3.org/2000/svg">
<path d="M4.5 4.5H12C12.3978 4.5 12.7794 4.65804 13.0607 4.93934C13.342 5.22064 13.5 5.60218 13.5 6V6.5M6 13.5H2C1.60218 13.5 1.22064 13.342 0.93934 13.0607C0.658035 12.7794 0.5 12.3978 0.5 12V3.5C0.5 3.23478 0.605357 2.98043 0.792893 2.79289C0.98043 2.60536 1.23478 2.5 1.5 2.5H6.5C6.76522 2.5 7.01957 2.60536 7.20711 2.79289C7.39464 2.98043 7.5 3.23478 7.5 3.5V4.5" stroke="#CAD3F5" stroke-linecap="round" stroke-linejoin="round"/>
<path d="M12 14.5H15M11.5 15.5L13.5 11.5L15.5 15.5M9.5 11.5C9.5 11.5 10.056 13.234 12.5 13.5M11.5 10C11.5 10 11.648 13.3 8.5 13.5H8M8 9.5H13M10.5 8V9.5" stroke="#C6A0F6" stroke-linecap="round" stroke-linejoin="round"/>
</svg>
