<svg width="20" height="21" viewBox="0 0 20 21" fill="none" xmlns="http://www.w3.org/2000/svg">
<path d="M5.64062 0.261993C2.52541 0.261993 0 4.73937 0 10.262C0 15.7846 2.52559 20.262 5.64062 20.262C8.75566 20.262 11.2812 15.7849 11.2812 10.262C11.2812 4.73904 8.75597 0.261993 5.64062 0.261993ZM14.6484 0.847781C13.0908 0.847781 11.8283 5.06369 11.8283 10.2622C11.8283 15.4606 13.091 19.6768 14.6486 19.6768C16.2063 19.6768 17.469 15.4609 17.469 10.2622H17.4688C17.4688 5.0622 16.2063 0.847781 14.6485 0.847781H14.6484ZM19.008 1.82837C18.4603 1.82837 18.0163 5.60457 18.0163 10.2622C18.0163 14.9197 18.46 18.6959 19.008 18.6959C19.556 18.6959 20 14.9188 20 10.262C20 5.60424 19.5558 1.82837 19.0081 1.82837H19.008Z" fill="#25282B"/>
</svg>
