<svg width="283" height="338" viewBox="0 0 283 338" fill="none" xmlns="http://www.w3.org/2000/svg">
<path fill-rule="evenodd" clip-rule="evenodd" d="M210.906 -94.6737C259.958 -92.3453 311.557 -74.1337 341.507 -36.2176C369.2 -1.15994 350.593 48.6199 358.503 92.1795C364.862 127.2 388.597 158.264 383.211 193.438C377.245 232.407 358.223 269.595 327.429 295.137C295.177 321.889 252.459 344.367 210.906 336.357C170.631 328.593 158.085 277.678 123.675 255.861C86.0262 231.99 20.3875 245.073 3.17821 204.65C-13.6805 165.052 41.4922 130.267 52.5385 88.7704C64.7746 42.8038 39.3432 -12.7284 70.7181 -49.0713C103.223 -86.7233 160.464 -97.068 210.906 -94.6737Z" fill="#7456FF"/>
</svg>
