<svg width="521" height="491" viewBox="0 0 521 491" fill="none" xmlns="http://www.w3.org/2000/svg">
<path fill-rule="evenodd" clip-rule="evenodd" d="M354.805 -213.469C437.326 -209.678 524.13 -180.026 574.515 -118.292C621.102 -61.2119 589.799 19.8385 603.106 90.7611C613.805 147.78 653.733 198.358 644.673 255.628C634.636 319.076 602.636 379.625 550.831 421.212C496.573 464.768 424.71 501.366 354.805 488.324C287.051 475.684 265.945 392.785 208.058 357.263C144.721 318.397 34.2977 339.698 5.34668 273.884C-23.0145 209.41 69.8019 152.774 88.385 85.2104C108.97 10.3688 66.1867 -80.0473 118.968 -139.22C173.651 -200.524 269.948 -217.367 354.805 -213.469Z" fill="#7456FF"/>
</svg>
